# xmcd CD database file
#
# Track frame offsets:
#	150
#	17332
#	36981
#	58607
#	76145
#	92806
#	109651
#	125069
#	139083
#	156505
#	170669
#	183635
#	198268
#	208057
#	223205
#	234844
#	248162
#	260591
#	277115
#	294907
#	306551
#	325465
#
# Disc length: 4505 seconds
#
# Revision: 0
# Processed by: cddbd v1.5.2PL0 Copyright (c) Steve Scherf et al.
# Submitted via: CDex 1.51
#
DISCID=52119716
DTITLE=Jools Holland and His Rhythm and Blues Orchestra - Moving Out To The Country
DYEAR=2006
DGENRE=Country
TTITLE0=KT Tunstall - Darkness On The Face Of The Earth
TTITLE1=Richard Hawely - I'm So Lonsome I Could Cry
TTITLE2=Solomon Burke - Moving Out To The Country
TTITLE3=Lulu - She'll Have To Go
TTITLE4=Bob Geldof - For The Good Times
TTITLE5=India Arie - Georgia On My Mind
TTITLE6=Brian Eno - Dreaming My Dreams With You
TTITLE7=Mark Knopfler - You Win Again
TTITLE8=David Mealmont - Misty Blue
TTITLE9=Tom Jones - I Wish I Was 18 Again
TTITLE10=Louise Marshall - Sweet Dreams
TTITLE11=Mare Almond - Games People Play
TTITLE12=Jools Holland - Boogie Woogie Country Girl
TTITLE13=Paul Carrack - Take These Chains From My Heart
TTITLE14=Jools Holland - Rocket To The Moon
TTITLE15=Ruby Turner - It Ain't Gonna Worry My Mind
TTITLE16=Tom Jones - Friends Not Lovers'
TTITLE17=Lulu - I Can't Stop Loving You
TTITLE18=Dr. John - Dead Hosts Welcome
TTITLE19=Sam Brown - Feel Like Going Home
TTITLE20=Bob Geldof - The Pilgrim
TTITLE21=Jools Holland - Where Do I Go From Here
EXTD=YEAR: 2006
EXTT0=
EXTT1=
EXTT2=
EXTT3=
EXTT4=
EXTT5=
EXTT6=
EXTT7=
EXTT8=
EXTT9=
EXTT10=
EXTT11=
EXTT12=
EXTT13=
EXTT14=
EXTT15=
EXTT16=
EXTT17=
EXTT18=
EXTT19=
EXTT20=
EXTT21=
PLAYORDER=
